<svg version="1.1" id="Layer_1" xmlns="http://www.w3.org/2000/svg" xmlns:xlink="http://www.w3.org/1999/xlink" x="0px" y="0px"
	 width="100%" viewBox="0 0 1265 1265" enable-background="new 0 0 1265 1265" xml:space="preserve">
<path fill="#000000" opacity="1.000000" stroke="none" 
	d="
M620.000000,1266.000000 
	C413.333344,1266.000000 207.166672,1266.000000 1.000000,1266.000000 
	C1.000000,844.333313 1.000000,422.666656 1.000000,1.000000 
	C422.666656,1.000000 844.333313,1.000000 1266.000000,1.000000 
	C1266.000000,422.666656 1266.000000,844.333313 1266.000000,1266.000000 
	C1050.833374,1266.000000 835.666687,1266.000000 620.000000,1266.000000 
M646.038635,833.954651 
	C646.038635,833.954651 646.041321,833.913940 646.006592,833.178040 
	C645.767883,832.573425 645.246704,831.925903 645.331177,831.370483 
	C648.698486,809.221069 662.783020,793.082642 685.883118,792.369690 
	C710.512939,791.609558 735.168335,791.652283 759.813354,791.425354 
	C771.806152,791.314819 783.803589,791.214600 795.793823,791.416016 
	C819.261963,791.810181 841.208679,785.529297 862.028259,775.519409 
	C882.092712,765.872620 899.278320,752.261902 913.899902,735.236023 
	C927.042053,719.932678 937.341797,703.158447 944.039368,684.178040 
	C951.853943,662.032043 955.118103,639.374268 953.218140,615.784302 
	C951.915833,599.614929 948.128052,584.213684 942.718445,569.106995 
	C941.421265,565.484619 938.980286,562.271729 937.030945,558.110535 
	C931.415344,548.615784 926.553955,538.562622 920.024597,529.744507 
	C907.073975,512.254150 890.782227,498.187714 871.852722,487.338501 
	C859.209167,480.091980 846.030518,474.083862 831.417236,470.821869 
	C830.901794,472.778687 830.321106,474.485260 830.010132,476.239594 
	C826.656006,495.163666 821.526550,513.518372 813.222595,530.941589 
	C799.917969,558.856995 781.909851,582.997070 757.870178,602.714661 
	C738.832336,618.329773 717.933777,630.510010 694.767822,638.556335 
	C683.442078,642.490173 671.601624,644.942322 659.338013,648.008972 
	C658.904480,648.062439 658.471008,648.115906 657.421387,647.994934 
	C656.932556,648.290039 656.443726,648.585205 655.159729,648.975586 
	C654.098022,649.050598 653.036316,649.125610 651.092957,649.033630 
	C647.672913,649.322998 644.252869,649.612427 639.916809,649.876038 
	C632.117126,650.229431 624.320374,650.674805 616.517273,650.919189 
	C592.294495,651.677795 569.790283,658.354004 548.510742,669.846497 
	C529.921021,679.886353 513.898071,692.954346 500.430969,709.141479 
	C496.889832,713.397827 494.081329,718.263611 490.306763,723.117249 
	C481.748962,733.483643 476.640076,745.686523 472.014221,758.081726 
	C461.794067,785.467102 460.728333,813.693481 464.994629,842.292786 
	C467.983490,862.328979 475.235779,880.968384 485.801941,898.074524 
	C494.421722,912.029663 504.738251,924.723206 517.379517,935.589111 
	C528.524536,945.168945 540.170532,953.908447 553.341431,960.187744 
	C584.185120,974.892761 616.526489,981.037598 650.659119,975.343018 
	C673.180542,971.585632 694.229004,964.201355 713.475220,951.642517 
	C727.896545,942.232117 741.328857,931.674011 751.711975,917.953918 
	C759.680603,907.424255 767.130737,896.326660 773.364807,884.705566 
	C780.710388,871.012634 784.724731,855.943237 787.606934,840.616882 
	C788.411621,836.338196 787.492004,834.885376 783.084351,834.928101 
	C768.095215,835.073303 753.103516,834.957581 738.112793,834.943970 
	C717.469727,834.925293 696.826660,834.908875 675.399048,834.588928 
	C665.611572,834.372253 655.824158,834.155518 646.038635,833.954651 
M596.253052,608.255188 
	C613.995667,607.298889 631.905640,607.561340 649.448608,605.151428 
	C696.864014,598.637756 733.825562,574.566040 761.699524,535.010864 
	C770.148071,521.675842 777.236389,507.715820 782.106384,492.626862 
	C788.001465,474.361725 789.435181,455.655334 789.065857,436.600464 
	C788.664551,415.894684 784.001587,396.227478 775.464539,377.523712 
	C765.587769,355.884552 752.169373,336.851715 733.921448,321.166901 
	C716.335205,306.050903 696.868164,294.790131 674.825439,287.606934 
	C656.032715,281.482788 636.816223,280.595642 617.300903,280.883453 
	C594.620178,281.217957 573.387939,287.212738 553.373596,297.180573 
	C534.424744,306.617828 517.919128,319.443878 503.732880,335.471405 
	C486.126678,355.362701 474.222046,378.040009 467.338898,403.500580 
	C465.801544,409.187225 464.934906,415.055206 463.643341,421.411224 
	C466.363464,421.411224 468.330353,421.400513 470.297089,421.412811 
	C513.448059,421.682312 556.599060,421.943726 599.749695,422.258026 
	C601.857605,422.273376 603.962036,422.756592 606.033203,423.884216 
	C605.928101,432.560638 603.380920,440.545929 598.353027,447.519470 
	C590.902710,457.852905 581.011780,463.970276 567.833618,464.063171 
	C531.020569,464.322601 494.200867,464.365479 457.400146,465.208313 
	C446.070343,465.467834 434.585968,467.134338 423.529541,469.697388 
	C385.092773,478.607666 354.475311,499.880646 330.584198,530.965881 
	C312.741180,554.181763 301.692017,580.564026 299.381348,609.644958 
	C297.800476,629.540833 297.126190,649.914490 303.182770,669.464966 
	C306.192627,679.180725 310.404236,688.524292 314.152832,698.724731 
	C326.019989,723.092041 343.298859,742.951782 364.590546,759.516846 
	C379.739258,771.302734 396.882538,779.091248 414.974426,785.011658 
	C418.712280,786.234863 421.145966,785.318054 421.989349,780.859924 
	C423.586670,772.416565 425.106018,763.901123 427.567596,755.688293 
	C439.900848,714.539795 462.370422,680.085876 495.884338,652.913513 
	C523.283386,630.698914 554.204529,616.364563 588.896118,610.078369 
	C591.096619,609.679626 593.211548,608.808655 596.253052,608.255188 
z"/>
<path fill="#007AE6" opacity="1.000000" stroke="none" 
	d="
M761.096497,535.393066 
	C733.825562,574.566040 696.864014,598.637756 649.448608,605.151428 
	C631.905640,607.561340 613.995667,607.298889 595.316162,608.157104 
	C549.831848,608.037048 505.284363,608.011658 460.736877,607.994507 
	C440.577148,607.986755 421.121460,611.731018 402.338531,619.018311 
	C371.258820,631.076538 346.004547,650.609802 326.985443,678.035461 
	C322.465668,684.553040 318.365479,691.361572 314.072266,698.036194 
	C310.404236,688.524292 306.192627,679.180725 303.182770,669.464966 
	C297.126190,649.914490 297.800476,629.540833 299.381348,609.644958 
	C301.692017,580.564026 312.741180,554.181763 330.584198,530.965881 
	C354.475311,499.880646 385.092773,478.607666 423.529541,469.697388 
	C434.585968,467.134338 446.070343,465.467834 457.400146,465.208313 
	C494.200867,464.365479 531.020569,464.322601 567.833618,464.063171 
	C581.011780,463.970276 590.902710,457.852905 598.353027,447.519470 
	C603.380920,440.545929 605.928101,432.560638 606.498535,423.461884 
	C614.399963,423.693756 621.876404,424.051910 629.264771,425.056824 
	C652.871826,428.267609 674.512451,436.730988 694.545532,449.623199 
	C709.665039,459.353333 722.545166,471.461792 733.821289,485.326080 
	C746.002258,500.302887 755.249084,516.936768 761.096497,535.393066 
z"/>
<path fill="#F7BA0D" opacity="1.000000" stroke="none" 
	d="
M490.936371,722.849548 
	C494.081329,718.263611 496.889832,713.397827 500.430969,709.141479 
	C513.898071,692.954346 529.921021,679.886353 548.510742,669.846497 
	C569.790283,658.354004 592.294495,651.677795 616.517273,650.919189 
	C624.320374,650.674805 632.117126,650.229431 640.830933,649.952271 
	C645.154846,649.752625 648.564758,649.476685 651.974609,649.200684 
	C653.036316,649.125610 654.098022,649.050598 655.730591,649.113647 
	C656.880188,648.890869 657.458801,648.530090 658.037476,648.169312 
	C658.471008,648.115906 658.904480,648.062439 660.009399,648.269592 
	C662.656250,648.690735 664.631714,648.990051 666.607239,648.991333 
	C707.905762,649.016907 749.204285,648.967285 790.502686,649.029724 
	C805.033325,649.051697 819.216309,647.264893 833.339355,643.565613 
	C856.954041,637.380310 878.020447,626.276062 896.416077,610.689026 
	C913.368347,596.325012 927.535522,579.294556 937.065430,558.870544 
	C938.980286,562.271729 941.421265,565.484619 942.718445,569.106995 
	C948.128052,584.213684 951.915833,599.614929 953.218140,615.784302 
	C955.118103,639.374268 951.853943,662.032043 944.039368,684.178040 
	C937.341797,703.158447 927.042053,719.932678 913.899902,735.236023 
	C899.278320,752.261902 882.092712,765.872620 862.028259,775.519409 
	C841.208679,785.529297 819.261963,791.810181 795.793823,791.416016 
	C783.803589,791.214600 771.806152,791.314819 759.813354,791.425354 
	C735.168335,791.652283 710.512939,791.609558 685.883118,792.369690 
	C662.783020,793.082642 648.698486,809.221069 645.331177,831.370483 
	C645.246704,831.925903 645.767883,832.573425 645.561035,833.580017 
	C637.010986,833.318237 628.838135,833.111633 620.813965,831.911316 
	C586.838684,826.829407 557.634155,811.745789 532.871277,788.229553 
	C513.609680,769.937805 499.835876,747.900879 490.936371,722.849548 
z"/>
<path fill="#FFDC02" opacity="1.000000" stroke="none" 
	d="
M490.621582,722.983398 
	C499.835876,747.900879 513.609680,769.937805 532.871277,788.229553 
	C557.634155,811.745789 586.838684,826.829407 620.813965,831.911316 
	C628.838135,833.111633 637.010986,833.318237 645.578369,833.947998 
	C646.041321,833.913940 646.038635,833.954651 646.354736,834.215454 
	C656.508484,834.614685 666.346008,834.753113 676.183594,834.891479 
	C696.826660,834.908875 717.469727,834.925293 738.112793,834.943970 
	C753.103516,834.957581 768.095215,835.073303 783.084351,834.928101 
	C787.492004,834.885376 788.411621,836.338196 787.606934,840.616882 
	C784.724731,855.943237 780.710388,871.012634 773.364807,884.705566 
	C767.130737,896.326660 759.680603,907.424255 751.711975,917.953918 
	C741.328857,931.674011 727.896545,942.232117 713.475220,951.642517 
	C694.229004,964.201355 673.180542,971.585632 650.659119,975.343018 
	C616.526489,981.037598 584.185120,974.892761 553.341431,960.187744 
	C540.170532,953.908447 528.524536,945.168945 517.379517,935.589111 
	C504.738251,924.723206 494.421722,912.029663 485.801941,898.074524 
	C475.235779,880.968384 467.983490,862.328979 464.994629,842.292786 
	C460.728333,813.693481 461.794067,785.467102 472.014221,758.081726 
	C476.640076,745.686523 481.748962,733.483643 490.621582,722.983398 
M635.529053,887.953247 
	C627.343567,893.449463 623.713074,902.000183 626.094849,911.454590 
	C629.064514,923.242554 637.912537,927.937744 647.721741,927.285889 
	C661.811340,926.349792 668.256287,915.429504 667.636414,904.945923 
	C666.581177,887.100098 648.591248,880.477356 635.529053,887.953247 
z"/>
<path fill="#01A8FE" opacity="1.000000" stroke="none" 
	d="
M761.398010,535.201965 
	C755.249084,516.936768 746.002258,500.302887 733.821289,485.326080 
	C722.545166,471.461792 709.665039,459.353333 694.545532,449.623199 
	C674.512451,436.730988 652.871826,428.267609 629.264771,425.056824 
	C621.876404,424.051910 614.399963,423.693756 606.515991,423.030731 
	C603.962036,422.756592 601.857605,422.273376 599.749695,422.258026 
	C556.599060,421.943726 513.448059,421.682312 470.297089,421.412811 
	C468.330353,421.400513 466.363464,421.411224 463.643341,421.411224 
	C464.934906,415.055206 465.801544,409.187225 467.338898,403.500580 
	C474.222046,378.040009 486.126678,355.362701 503.732880,335.471405 
	C517.919128,319.443878 534.424744,306.617828 553.373596,297.180573 
	C573.387939,287.212738 594.620178,281.217957 617.300903,280.883453 
	C636.816223,280.595642 656.032715,281.482788 674.825439,287.606934 
	C696.868164,294.790131 716.335205,306.050903 733.921448,321.166901 
	C752.169373,336.851715 765.587769,355.884552 775.464539,377.523712 
	C784.001587,396.227478 788.664551,415.894684 789.065857,436.600464 
	C789.435181,455.655334 788.001465,474.361725 782.106384,492.626862 
	C777.236389,507.715820 770.148071,521.675842 761.398010,535.201965 
M589.882324,336.395721 
	C585.251770,342.506622 583.099487,349.145081 584.977844,356.882111 
	C587.402527,366.869690 597.209595,373.821503 607.183350,372.379028 
	C619.021301,370.666901 627.895569,361.204834 626.806274,350.687408 
	C625.907532,342.010040 622.283691,334.768280 613.394836,331.374817 
	C604.753052,328.075684 597.190735,330.229065 589.882324,336.395721 
z"/>
<path fill="#F09819" opacity="1.000000" stroke="none" 
	d="
M937.048218,558.490540 
	C927.535522,579.294556 913.368347,596.325012 896.416077,610.689026 
	C878.020447,626.276062 856.954041,637.380310 833.339355,643.565613 
	C819.216309,647.264893 805.033325,649.051697 790.502686,649.029724 
	C749.204285,648.967285 707.905762,649.016907 666.607239,648.991333 
	C664.631714,648.990051 662.656250,648.690735 660.337463,648.297668 
	C671.601624,644.942322 683.442078,642.490173 694.767822,638.556335 
	C717.933777,630.510010 738.832336,618.329773 757.870178,602.714661 
	C781.909851,582.997070 799.917969,558.856995 813.222595,530.941589 
	C821.526550,513.518372 826.656006,495.163666 830.010132,476.239594 
	C830.321106,474.485260 830.901794,472.778687 831.417236,470.821869 
	C846.030518,474.083862 859.209167,480.091980 871.852722,487.338501 
	C890.782227,498.187714 907.073975,512.254150 920.024597,529.744507 
	C926.553955,538.562622 931.415344,548.615784 937.048218,558.490540 
z"/>
<path fill="#014BD0" opacity="1.000000" stroke="none" 
	d="
M314.112549,698.380493 
	C318.365479,691.361572 322.465668,684.553040 326.985443,678.035461 
	C346.004547,650.609802 371.258820,631.076538 402.338531,619.018311 
	C421.121460,611.731018 440.577148,607.986755 460.736877,607.994507 
	C505.284363,608.011658 549.831848,608.037048 594.872803,608.108154 
	C593.211548,608.808655 591.096619,609.679626 588.896118,610.078369 
	C554.204529,616.364563 523.283386,630.698914 495.884338,652.913513 
	C462.370422,680.085876 439.900848,714.539795 427.567596,755.688293 
	C425.106018,763.901123 423.586670,772.416565 421.989349,780.859924 
	C421.145966,785.318054 418.712280,786.234863 414.974426,785.011658 
	C396.882538,779.091248 379.739258,771.302734 364.590546,759.516846 
	C343.298859,742.951782 326.019989,723.092041 314.112549,698.380493 
z"/>
<path fill="#F7BA0D" opacity="1.000000" stroke="none" 
	d="
M675.791321,834.740234 
	C666.346008,834.753113 656.508484,834.614685 646.353760,834.207520 
	C655.824158,834.155518 665.611572,834.372253 675.791321,834.740234 
z"/>
<path fill="#F09819" opacity="1.000000" stroke="none" 
	d="
M651.533813,649.117188 
	C648.564758,649.476685 645.154846,649.752625 641.288940,649.965210 
	C644.252869,649.612427 647.672913,649.322998 651.533813,649.117188 
z"/>
<path fill="#F09819" opacity="1.000000" stroke="none" 
	d="
M657.729431,648.082153 
	C657.458801,648.530090 656.880188,648.890869 656.128174,649.066040 
	C656.443726,648.585205 656.932556,648.290039 657.729431,648.082153 
z"/>
<path fill="#030301" opacity="1.000000" stroke="none" 
	d="
M635.862915,887.771240 
	C648.591248,880.477356 666.581177,887.100098 667.636414,904.945923 
	C668.256287,915.429504 661.811340,926.349792 647.721741,927.285889 
	C637.912537,927.937744 629.064514,923.242554 626.094849,911.454590 
	C623.713074,902.000183 627.343567,893.449463 635.862915,887.771240 
z"/>
<path fill="#000000" opacity="1.000000" stroke="none" 
	d="
M590.064697,336.079773 
	C597.190735,330.229065 604.753052,328.075684 613.394836,331.374817 
	C622.283691,334.768280 625.907532,342.010040 626.806274,350.687408 
	C627.895569,361.204834 619.021301,370.666901 607.183350,372.379028 
	C597.209595,373.821503 587.402527,366.869690 584.977844,356.882111 
	C583.099487,349.145081 585.251770,342.506622 590.064697,336.079773 
z"/>
</svg>